<svg xmlns="http://www.w3.org/2000/svg" viewBox="0 0 100 100" width="100" height="100">
  <!-- Background circle -->
  <circle cx="50" cy="50" r="50" fill="#3F1B08"/>
  <!-- Ornament shape – lime/yellow-green -->
  <!-- Center flame/spire -->
  <path d="M50 18 C50 18 46 26 46 31 C46 36 48.5 38 50 38 C51.5 38 54 36 54 31 C54 26 50 18 50 18Z" fill="#D7E51E"/>
  <!-- Left leaf large -->
  <path d="M50 52 C50 52 36 44 28 46 C22 48 22 54 28 55 C34 56 44 52 50 52Z" fill="#D7E51E"/>
  <!-- Right leaf large -->
  <path d="M50 52 C50 52 64 44 72 46 C78 48 78 54 72 55 C66 56 56 52 50 52Z" fill="#D7E51E"/>
  <!-- Left leaf mid -->
  <path d="M50 50 C50 50 38 38 30 38 C24 38 22 43 27 46 C33 49 44 50 50 50Z" fill="#D7E51E"/>
  <!-- Right leaf mid -->
  <path d="M50 50 C50 50 62 38 70 38 C76 38 78 43 73 46 C67 49 56 50 50 50Z" fill="#D7E51E"/>
  <!-- Left leaf upper -->
  <path d="M50 45 C50 45 40 33 34 32 C29 31 27 36 31 39 C36 43 44 45 50 45Z" fill="#D7E51E"/>
  <!-- Right leaf upper -->
  <path d="M50 45 C50 45 60 33 66 32 C71 31 73 36 69 39 C64 43 56 45 50 45Z" fill="#D7E51E"/>
  <!-- Center body connecting to stem -->
  <path d="M46 38 C46 38 44 48 46 55 C47.5 60 50 62 50 62 C50 62 52.5 60 54 55 C56 48 54 38 54 38 Z" fill="#D7E51E"/>
  <!-- Stem -->
  <path d="M49 62 C49 62 48 68 49.5 74 C50 76 50 76 50.5 74 C52 68 51 62 51 62 Z" fill="#D7E51E"/>
  <!-- Decorative small left tip -->
  <path d="M50 50 C50 50 42 46 38 48 C35 50 36 53 39 53 C43 53 48 51 50 50Z" fill="#D7E51E" opacity="0.7"/>
  <!-- Decorative small right tip -->
  <path d="M50 50 C50 50 58 46 62 48 C65 50 64 53 61 53 C57 53 52 51 50 50Z" fill="#D7E51E" opacity="0.7"/>
</svg>
